<svg xmlns="http://www.w3.org/2000/svg" width="446" height="313" viewBox="0 0 446 313"><path fill="#139CD8" d="M185.602 34.481c14.379-14.981 34.4-24.275 56.545-24.275 29.439 0 55.116 16.411 68.794 40.777 11.888-5.308 25.042-8.264 38.883-8.264 53.091 0 96.135 43.418 96.135 96.974 0 53.563-43.044 96.981-96.135 96.981a95.993 95.993 0 0 1-18.94-1.888c-12.039 21.476-34.99 35.993-61.336 35.993-11.023 0-21.45-2.543-30.743-7.078-12.203 28.718-40.652 48.858-73.801 48.858-34.525 0-63.951-21.843-75.242-52.482a73.988 73.988 0 0 1-15.296 1.592c-41.105 0-74.423-33.666-74.423-75.197 0-27.84 14.962-52.141 37.212-65.143-4.581-10.545-7.124-22.171-7.124-34.4C30.131 39.166 68.909.44 116.738.44c28.08.001 53.037 13.351 68.864 34.041"/><g fill="#FFF"><path d="M64.624 162.296c-.282.734.098.885.19 1.01.839.609 1.684 1.048 2.543 1.54 4.548 2.412 8.847 3.113 13.337 3.113 9.149 0 14.831-4.863 14.831-12.695v-.15c0-7.242-6.416-9.876-12.426-11.777l-.786-.249c-4.535-1.474-8.448-2.746-8.448-5.734v-.151c0-2.556 2.287-4.437 5.833-4.437 3.939 0 8.612 1.311 11.62 2.976 0 0 .891.57 1.212-.288.177-.466 1.697-4.562 1.861-5.007.17-.478-.131-.839-.446-1.029-3.441-2.091-8.192-3.519-13.107-3.519l-.911.006c-8.376 0-14.221 5.06-14.221 12.308v.151c0 7.635 6.449 10.119 12.491 11.842l.97.302c4.404 1.35 8.199 2.516 8.199 5.61v.158c0 2.831-2.471 4.941-6.442 4.941-1.547 0-6.468-.026-11.784-3.388-.642-.38-1.009-.649-1.507-.95-.262-.164-.918-.446-1.206.413l-1.803 5.004zM198.533 162.296c-.282.734.098.885.19 1.01.839.609 1.684 1.048 2.543 1.54 4.548 2.412 8.847 3.113 13.337 3.113 9.149 0 14.831-4.863 14.831-12.695v-.15c0-7.242-6.416-9.876-12.426-11.777l-.786-.249c-4.535-1.474-8.448-2.746-8.448-5.734v-.151c0-2.556 2.287-4.437 5.833-4.437 3.939 0 8.612 1.311 11.62 2.976 0 0 .891.57 1.212-.288.177-.466 1.697-4.562 1.861-5.007.17-.478-.131-.839-.446-1.029-3.441-2.091-8.186-3.519-13.107-3.519l-.911.006c-8.376 0-14.221 5.06-14.221 12.308v.151c0 7.635 6.455 10.119 12.491 11.842l.97.302c4.404 1.35 8.205 2.516 8.205 5.61v.158c0 2.831-2.471 4.941-6.449 4.941-1.547 0-6.462-.026-11.783-3.388-.642-.38-1.022-.636-1.507-.95-.164-.105-.937-.406-1.199.413l-1.81 5.004zM297.583 138.748c-.747-2.536-1.92-4.771-3.473-6.632-1.553-1.868-3.526-3.368-5.866-4.456-2.333-1.088-5.086-1.645-8.179-1.645-3.1 0-5.859.557-8.192 1.645s-4.306 2.589-5.859 4.463c-1.56 1.861-2.726 4.096-3.473 6.626-.747 2.523-1.127 5.282-1.127 8.205s.38 5.689 1.127 8.205c.747 2.53 1.914 4.764 3.473 6.632 1.553 1.868 3.532 3.362 5.865 4.424 2.333 1.062 5.086 1.599 8.186 1.599 3.093 0 5.839-.538 8.179-1.599 2.333-1.062 4.306-2.556 5.866-4.424 1.553-1.861 2.726-4.096 3.473-6.632.747-2.523 1.127-5.282 1.127-8.205 0-2.924-.38-5.683-1.127-8.206m-7.635 8.205c0 4.424-.826 7.917-2.451 10.381-1.612 2.438-4.044 3.63-7.432 3.63-3.395 0-5.813-1.192-7.399-3.63-1.606-2.464-2.418-5.957-2.418-10.381 0-4.417.813-7.904 2.412-10.341 1.593-2.412 4.011-3.585 7.406-3.585 3.388 0 5.82 1.173 7.432 3.585 1.624 2.437 2.45 5.924 2.45 10.341"/><path fill-rule="evenodd" clip-rule="evenodd" d="M360.283 159.778c-.249-.74-.977-.458-.977-.458-1.108.426-2.287.812-3.552 1.009-1.271.203-2.674.301-4.181.301-3.69 0-6.632-1.101-8.736-3.27-2.104-2.176-3.29-5.689-3.277-10.44.013-4.319 1.055-7.569 2.929-10.053 1.861-2.464 4.699-3.729 8.474-3.729 3.146 0 5.551.367 8.068 1.153 0 0 .603.262.885-.524.675-1.861 1.167-3.178 1.881-5.216.203-.583-.295-.826-.478-.898-.99-.387-3.323-1.022-5.092-1.291-1.645-.249-3.578-.38-5.728-.38-3.205 0-6.062.55-8.507 1.638-2.445 1.082-4.509 2.582-6.154 4.45-1.638 1.868-2.884 4.102-3.709 6.632-.832 2.523-1.245 5.288-1.245 8.224 0 6.331 1.704 11.449 5.079 15.192 3.382 3.768 8.454 5.675 15.073 5.675 3.913 0 7.923-.793 10.814-1.927 0 0 .551-.269.308-.911l-1.875-5.177zM399.346 137.312c-.649-2.451-2.255-4.922-3.303-6.049-1.665-1.796-3.297-3.048-4.909-3.742a18.832 18.832 0 0 0-7.406-1.501c-3.224 0-6.154.544-8.533 1.658-2.379 1.114-4.378 2.641-5.951 4.542-1.566 1.894-2.746 4.148-3.5 6.711-.754 2.543-1.134 5.315-1.134 8.244 0 2.982.393 5.761 1.173 8.251.786 2.523 2.045 4.732 3.742 6.574 1.704 1.848 3.886 3.29 6.501 4.306 2.602 1.003 5.761 1.527 9.385 1.514 7.465-.02 11.397-1.684 13.016-2.582.288-.164.557-.439.223-1.238l-1.697-4.732c-.256-.701-.97-.446-.97-.446-1.855.688-4.476 1.92-10.61 1.907-4.011-.006-6.98-1.186-8.841-3.041-1.907-1.888-2.851-4.666-3.008-8.592l25.841.02s.682-.007.754-.675c.027-.276.885-5.31-.773-11.129m-25.703 5.4c.367-2.458 1.042-4.502 2.091-6.095 1.579-2.418 3.991-3.755 7.386-3.755s5.63 1.337 7.242 3.755c1.068 1.599 1.534 3.722 1.717 6.102l-18.436-.007zM192.351 137.312c-.649-2.451-2.254-4.922-3.303-6.049-1.665-1.796-3.29-3.048-4.909-3.742a18.845 18.845 0 0 0-7.399-1.501c-3.231 0-6.16.544-8.539 1.658-2.379 1.114-4.378 2.641-5.951 4.542-1.566 1.894-2.746 4.148-3.5 6.711-.754 2.543-1.134 5.315-1.134 8.244 0 2.982.393 5.761 1.173 8.251.786 2.523 2.045 4.732 3.742 6.574 1.704 1.848 3.886 3.29 6.501 4.306 2.602 1.003 5.761 1.527 9.385 1.514 7.465-.02 11.397-1.684 13.016-2.582.288-.164.557-.439.223-1.238l-1.697-4.732c-.256-.701-.97-.446-.97-.446-1.855.688-4.476 1.92-10.61 1.907-4.004-.006-6.98-1.186-8.841-3.041-1.907-1.888-2.851-4.666-3.008-8.592l25.841.02s.682-.007.754-.675c.026-.276.884-5.31-.774-11.129m-25.703 5.4c.367-2.458 1.042-4.502 2.084-6.095 1.593-2.418 3.998-3.755 7.393-3.755 3.395 0 5.636 1.337 7.248 3.755 1.062 1.599 1.527 3.722 1.711 6.102l-18.436-.007z"/><path d="M121.064 141.476c-1.049-.078-2.405-.118-4.03-.118-2.215 0-4.358.275-6.37.819-2.019.544-3.834 1.383-5.394 2.497a12.48 12.48 0 0 0-3.749 4.266c-.918 1.704-1.383 3.709-1.383 5.95 0 2.294.393 4.28 1.186 5.905a10.629 10.629 0 0 0 3.369 4.044c1.435 1.049 3.211 1.816 5.263 2.281 2.032.465 4.332.701 6.849.701a47.3 47.3 0 0 0 7.851-.655c2.536-.433 5.643-1.062 6.508-1.265.859-.197 1.809-.459 1.809-.459.642-.164.59-.846.59-.846l-.013-23.633c0-5.19-1.383-9.031-4.103-11.416-2.713-2.372-6.711-3.572-11.875-3.572-1.94 0-5.053.262-6.927.636 0 0-5.643 1.094-7.963 2.916 0 0-.511.315-.236 1.029l1.828 4.915c.229.636.852.419.852.419s.197-.078.426-.216c4.968-2.7 11.259-2.622 11.259-2.622 2.792 0 4.941.57 6.39 1.671 1.409 1.088 2.123 2.713 2.123 6.16v1.094c-2.215-.317-4.26-.501-4.26-.501m-10.282 18.16c-1.016-.806-1.153-1.009-1.488-1.533-.518-.793-.78-1.92-.78-3.362 0-2.268.754-3.906 2.307-5-.013 0 2.228-1.94 7.497-1.868 3.703.046 7.019.596 7.019.596v11.751s-3.283.701-6.98.924c-5.255.321-7.595-1.514-7.575-1.508"/><path fill-rule="evenodd" clip-rule="evenodd" d="M329.529 128.158c.197-.583-.216-.865-.387-.93-.439-.164-2.641-.629-4.332-.74-3.251-.197-5.053.347-6.665 1.075-1.606.721-3.382 1.894-4.365 3.224l-.007-3.152c0-.433-.308-.78-.741-.78h-6.626c-.433 0-.741.347-.741.78v38.555c0 .432.347.78.786.78h6.79c.432 0 .78-.348.78-.78v-19.261c0-2.588.288-5.164.859-6.783.557-1.606 1.317-2.884 2.261-3.801.944-.918 2.019-1.56 3.198-1.92 1.199-.367 2.53-.492 3.46-.492 1.357 0 2.838.354 2.838.354.505.052.78-.256.95-.702a344.86 344.86 0 0 0 1.942-5.427M265.791 110.291a20.523 20.523 0 0 0-2.556-.603c-.996-.184-2.176-.275-3.513-.275-4.673 0-8.356 1.324-10.945 3.932-2.569 2.589-4.319 6.534-5.197 11.718l-.315 1.75H237.4s-.721-.026-.865.754l-.963 5.374c-.072.511.151.832.839.832h5.715l-5.8 32.349c-.452 2.602-.97 4.745-1.547 6.37-.564 1.606-1.121 2.805-1.802 3.676-.662.839-1.285 1.468-2.366 1.829-.891.295-1.92.432-3.041.432-.623 0-1.455-.105-2.071-.229-.616-.118-.937-.256-1.396-.446 0 0-.669-.256-.937.413-.21.55-1.73 4.738-1.914 5.256-.184.511.072.911.4 1.029.76.269 1.324.446 2.359.688 1.442.341 2.654.36 3.788.36 2.379 0 4.548-.334 6.344-.983 1.809-.656 3.382-1.796 4.778-3.329 1.501-1.665 2.451-3.408 3.355-5.787.898-2.353 1.658-5.276 2.274-8.684l5.82-32.945h8.513s.721.026.865-.754l.963-5.374c.066-.511-.151-.832-.839-.832h-8.264c.039-.184.413-3.094 1.363-5.826.406-1.173 1.167-2.11 1.815-2.759a5.389 5.389 0 0 1 2.163-1.35c.819-.262 1.75-.393 2.772-.393.78 0 1.54.092 2.123.21.8.17 1.114.262 1.324.321.839.262.95.013 1.121-.393l1.973-5.426c.204-.584-.287-.833-.471-.905M150.325 166.189c0 .433-.308.787-.741.787h-6.855c-.433 0-.741-.354-.741-.787v-55.162c0-.432.308-.78.741-.78h6.855c.433 0 .741.347.741.78v55.162z"/></g></svg>